<svg width="100" height="100" viewBox="0 0 100 100" fill="none" xmlns="http://www.w3.org/2000/svg">
<path d="M55.7165 40.7605C60.5887 40.7605 65.3865 42.4619 69.4843 45.5961C70.5676 46.3525 70.6409 47.6832 69.6509 48.5125C68.6565 49.3472 66.9943 49.3472 66.0054 48.517C62.6609 45.9534 59.1476 44.7934 55.7165 44.7934C52.2898 44.7934 48.7831 45.9534 45.4387 48.517C44.9587 48.8974 44.2998 49.1054 43.622 49.0912C41.3654 49.045 40.3109 46.829 41.9665 45.5952C46.0576 42.461 50.8487 40.7605 55.7165 40.7605ZM66.2131 32.8023C68.2276 32.8023 69.8654 34.1152 69.8654 35.7285C69.8654 37.3428 68.2265 38.6503 66.2131 38.6503C64.1998 38.6503 62.5676 37.3428 62.5676 35.7285C62.5676 34.1152 64.1998 32.8023 66.2131 32.8023ZM45.2309 32.8023C47.2454 32.8023 48.8765 34.1152 48.8765 35.7285C48.8765 37.3428 47.2443 38.6503 45.2309 38.6503C43.2109 38.6503 41.5787 37.3428 41.5787 35.7285C41.5787 34.1152 43.2098 32.8023 45.2309 32.8023ZM11.4631 13.6752C6.54981 13.7863 5.76869 19.717 10.5254 20.7517L16.7298 22.5045L24.0276 52.9552C24.8998 56.5997 26.3476 59.8965 28.3654 62.7339C31.3342 66.9125 36.4909 69.9961 42.8509 69.9961H74.4376C80.1365 70.0788 80.1365 62.7801 74.4376 62.8637H42.852C38.3554 62.405 36.4909 60.5925 34.842 57.9348H76.5331C80.3587 57.9348 82.4943 55.2174 83.4365 52.0743L92.5576 27.2477C93.0443 23.1668 90.342 22.3605 85.6131 22.3605L25.7176 22.397L24.1098 18.4601C23.6754 17.2877 22.5643 16.3828 21.1698 16.0681L11.4631 13.6752Z" fill="#F97316"/>
<path d="M66.7209 76.9231C62.9931 76.9231 59.9675 79.3488 59.9675 82.3346C59.9675 85.3248 62.9931 87.7497 66.7209 87.7497C70.4531 87.7497 73.4786 85.3248 73.4786 82.3346C73.4786 79.3488 70.4531 76.9231 66.7209 76.9231ZM39.7875 76.9231C36.0553 76.9231 33.0275 79.3488 33.0275 82.3346C33.0275 85.3248 36.0553 87.7497 39.7875 87.7497C43.5197 87.7497 46.5409 85.3248 46.5409 82.3346C46.5409 79.3488 43.5197 76.9231 39.7875 76.9231Z" fill="#F97316"/>
</svg>
