<svg width="153" height="153" viewBox="0 0 153 153" fill="none" xmlns="http://www.w3.org/2000/svg">
<path d="M114.351 114.351C135.402 93.2994 135.402 59.1683 114.351 38.1169C93.2994 17.0655 59.1683 17.0655 38.1169 38.1169C17.0655 59.1683 17.0655 93.2994 38.1169 114.351C59.1683 135.402 93.2994 135.402 114.351 114.351Z" fill="#CCCCCC"/>
<path d="M127.012 95.5034C138.566 68.066 125.691 36.457 98.2534 24.9027C70.816 13.3484 39.207 26.2242 27.6527 53.6616C16.0984 81.0989 28.9741 112.708 56.4115 124.262C83.8489 135.817 115.458 122.941 127.012 95.5034Z" fill="white"/>
<path d="M77.3357 123.816C104.526 123.816 126.568 101.774 126.568 74.5841C126.568 47.3941 104.526 25.3521 77.3357 25.3521C50.1456 25.3521 28.1037 47.3941 28.1037 74.5841C28.1037 101.774 50.1456 123.816 77.3357 123.816Z" fill="#CCCCCC"/>
<path d="M125.97 83.2653C130.165 57.0101 112.282 32.3249 86.027 28.1294C59.7718 23.9339 35.0866 41.8168 30.8911 68.072C26.6956 94.3272 44.5785 119.012 70.8337 123.208C97.0889 127.403 121.774 109.521 125.97 83.2653Z" fill="#EFEFEF"/>
<path d="M125.97 83.2653C130.165 57.0101 112.282 32.3249 86.027 28.1294C59.7718 23.9339 35.0866 41.8168 30.8911 68.072C26.6956 94.3272 44.5785 119.012 70.8337 123.208C97.0889 127.403 121.774 109.521 125.97 83.2653Z" fill="#EFEFEF"/>
<path d="M91.7007 91.3351C90.8287 92.2161 89.8977 93.0501 88.9017 93.8301L88.2267 94.3651C85.4167 96.6071 83.5337 97.8751 77.5217 97.8751C71.7037 97.8751 69.8447 96.6671 67.0597 94.5331L66.4507 94.0681C65.5557 93.3911 64.7057 92.6551 63.8967 91.8731C55.6747 95.4921 48.9607 102.069 45.0337 110.334C53.6907 118.676 65.4547 123.816 78.4257 123.816C91.3967 123.816 103.162 118.677 111.818 110.334C107.693 101.651 100.497 94.8181 91.7007 91.3351Z" fill="#CCCCCC"/>
<path d="M97.7677 67.8071C97.7677 78.8991 93.4837 86.6771 87.1727 91.6241C84.3037 93.8721 83.3397 95.0721 77.5227 95.0721C71.9377 95.0721 70.9467 93.9511 68.1427 91.8321C61.5147 86.8231 57.1157 78.0081 57.2957 68.7721C57.3587 65.5631 57.2107 62.3551 57.0427 59.1511C56.9887 58.1301 57.1407 56.8641 56.7807 55.9071C56.3557 54.7771 55.9807 53.8301 56.2287 52.5881C56.4947 51.2521 57.3657 50.0491 58.5527 49.3801C58.5277 47.7921 59.4527 46.0841 60.1957 44.7131C60.9307 43.3571 61.9157 42.1441 63.0657 41.1201C65.3757 39.0631 68.3217 37.7631 71.3637 37.2701C76.4677 36.4441 81.6487 37.6771 86.6197 39.2411C88.4567 39.8191 90.3017 40.4461 92.2027 40.5701C94.1037 40.6941 96.1027 40.2641 97.6047 38.9181C97.5807 39.2781 97.5557 39.6381 97.5307 39.9971C97.5097 38.8531 97.4887 37.7081 97.4667 36.5641C99.2887 38.4141 100.053 41.5251 99.3417 44.1961C99.7657 43.8391 100.19 43.4811 100.614 43.1241C101.345 46.4011 100.081 49.7811 98.8777 52.8701C97.9907 55.1461 97.0957 57.5641 97.0547 60.0971C97.0347 61.3191 97.4077 62.3391 97.5497 63.5051C97.7217 64.9221 97.7677 66.3771 97.7677 67.8071Z" fill="#CCCCCC"/>
<path d="M57.4757 63.8101C57.1397 62.6921 55.8037 62.0611 54.6647 62.3171C53.5257 62.5731 52.6407 63.5531 52.2717 64.6611C51.9037 65.7691 51.9897 66.9831 52.2647 68.1181C52.5397 69.2531 52.9967 70.3341 53.3707 71.4401C53.7417 72.5351 54.0837 73.7331 54.9977 74.4411C56.0857 75.2841 57.6137 75.1551 58.9797 74.9851" fill="#CCCCCC"/>
<path d="M96.7747 63.8101C97.1107 62.6921 98.4467 62.0611 99.5857 62.3171C100.725 62.5731 101.61 63.5531 101.979 64.6611C102.347 65.7691 102.261 66.9831 101.986 68.1181C101.711 69.2531 101.254 70.3341 100.879 71.4401C100.508 72.5351 100.166 73.7331 99.2517 74.4411C98.1637 75.2841 96.6357 75.1551 95.2697 74.9851" fill="#CCCCCC"/>
</svg>
