<svg width="500" height="500" viewBox="0 0 500 500" fill="none" xmlns="http://www.w3.org/2000/svg">
<path d="M426.269 139.259C426.269 139.259 419.021 133.686 408.448 151.22C397.876 168.754 393.613 178.997 393.613 178.997C393.613 178.997 390.89 182.635 388.449 179.956C386.008 177.277 382.926 169.952 378.384 170.907C373.673 171.898 371.785 176.941 372.125 184.575C372.465 192.209 372.596 208.961 372.602 210.476C372.608 211.963 371.605 214.082 369.65 212.523C367.695 210.965 356.807 196.948 350.465 202.513C344.123 208.077 348.565 229.188 349.006 231.505C349.447 233.822 348.933 234.762 347.813 235.247C346.692 235.733 343.477 230.676 340.217 226.817C336.957 222.957 332.5 219.053 329.11 222.57C325.72 226.087 323.613 241.539 336.587 267.807L343.395 279.585L357.058 279.801C386.326 278.482 398.841 269.177 400.284 264.51C401.728 259.843 396.157 257.825 391.203 256.833C386.249 255.841 380.269 255.466 380.153 254.25C380.037 253.034 380.612 252.13 382.854 251.398C385.096 250.666 405.728 244.364 407.54 236.124C409.352 227.884 391.821 225.115 389.512 224.155C387.203 223.195 388.575 221.294 389.88 220.581C391.209 219.855 405.944 211.883 412.793 208.495C419.642 205.108 423.148 201.019 421.741 196.416C420.385 191.977 412.482 192.814 408.957 191.97C405.433 191.125 407.304 186.984 407.304 186.984C407.304 186.984 414.217 178.306 424.469 160.583C434.721 142.86 426.112 139.152 426.112 139.152" fill="#EBEBEB"/>
<path d="M416.774 154.946C416.774 154.946 416.714 155.079 416.578 155.328C416.432 155.59 416.228 155.956 415.965 156.428C415.409 157.406 414.605 158.822 413.573 160.638C411.492 164.292 408.442 169.557 404.65 176.049C397.07 189.036 386.448 206.887 374.654 226.565C362.856 246.249 352.193 264.077 344.548 277.024C340.739 283.49 337.653 288.728 335.51 292.365C334.449 294.163 333.621 295.566 333.05 296.534C332.772 296.997 332.556 297.355 332.401 297.613C332.253 297.855 332.167 297.973 332.167 297.973C332.167 297.973 332.227 297.84 332.363 297.591C332.509 297.328 332.713 296.963 332.976 296.491C333.532 295.513 334.336 294.098 335.368 292.282C337.449 288.629 340.498 283.364 344.291 276.872C351.871 263.885 362.494 246.032 374.293 226.347C386.087 206.669 396.749 188.844 404.394 175.897C408.204 169.431 411.289 164.193 413.433 160.555C414.494 158.756 415.322 157.354 415.894 156.385C416.172 155.922 416.388 155.563 416.543 155.306C416.688 155.064 416.774 154.946 416.774 154.946Z" fill="#E0E0E0"/>
<path d="M382.283 181.328C382.312 181.322 382.408 181.659 382.559 182.273C382.713 182.887 382.909 183.78 383.141 184.886C383.601 187.1 384.158 190.173 384.712 193.575C385.245 196.932 385.728 199.968 386.097 202.29C386.27 203.336 386.416 204.218 386.533 204.927C386.639 205.549 386.684 205.897 386.655 205.903C386.627 205.909 386.527 205.574 386.371 204.96C386.219 204.346 386.022 203.452 385.802 202.343C385.364 200.124 384.847 197.045 384.294 193.643C383.737 190.292 383.232 187.26 382.847 184.941C382.669 183.896 382.518 183.014 382.397 182.305C382.297 181.682 382.254 181.334 382.283 181.328Z" fill="#E0E0E0"/>
<path d="M387.885 206.234C387.861 206.12 394.146 204.692 401.922 203.046C409.7 201.399 416.024 200.157 416.048 200.271C416.072 200.385 409.788 201.813 402.01 203.46C394.233 205.105 387.909 206.348 387.885 206.234Z" fill="#E0E0E0"/>
<path d="M368.407 235.641C368.41 235.612 368.768 235.622 369.412 235.666C370.142 235.721 371.053 235.789 372.135 235.87C374.433 236.039 377.609 236.258 381.121 236.372C384.634 236.494 387.817 236.494 390.121 236.475C391.206 236.467 392.119 236.461 392.851 236.455C393.496 236.454 393.854 236.467 393.855 236.496C393.856 236.525 393.501 236.568 392.858 236.619C392.214 236.67 391.282 236.728 390.129 236.773C387.823 236.868 384.63 236.916 381.107 236.794C377.585 236.68 374.404 236.412 372.108 236.167C370.961 236.04 370.034 235.926 369.395 235.829C368.755 235.735 368.404 235.669 368.407 235.641Z" fill="#E0E0E0"/>
<path d="M358.382 214.229C358.408 214.216 358.577 214.501 358.859 215.026C359.174 215.636 359.562 216.385 360.019 217.268C360.982 219.17 362.285 221.809 363.701 224.735C365.118 227.662 366.379 230.323 367.272 232.257C367.681 233.164 368.028 233.932 368.311 234.558C368.548 235.105 368.666 235.414 368.64 235.427C368.614 235.44 368.445 235.155 368.163 234.63C367.848 234.02 367.46 233.271 367.003 232.388C366.04 230.487 364.737 227.847 363.32 224.919C361.904 221.993 360.643 219.332 359.749 217.398C359.34 216.491 358.993 215.723 358.71 215.097C358.474 214.55 358.355 214.241 358.382 214.229Z" fill="#E0E0E0"/>
<path d="M337.888 238.004C337.914 237.991 338.127 238.357 338.488 239.03C338.878 239.777 339.381 240.741 339.985 241.898C341.232 244.328 342.929 247.698 344.78 251.431C346.631 255.166 348.286 258.557 349.465 261.021C350.02 262.202 350.483 263.186 350.841 263.949C351.158 264.644 351.32 265.035 351.294 265.048C351.268 265.061 351.056 264.695 350.694 264.022C350.304 263.275 349.801 262.311 349.197 261.154C347.95 258.724 346.253 255.354 344.401 251.619C342.55 247.886 340.896 244.495 339.717 242.031C339.162 240.85 338.699 239.866 338.341 239.103C338.025 238.408 337.862 238.017 337.888 238.004Z" fill="#E0E0E0"/>
<path d="M351.156 264.311C351.158 264.282 351.611 264.283 352.429 264.311C353.322 264.346 354.487 264.391 355.89 264.445C358.812 264.555 362.849 264.691 367.309 264.716C371.771 264.747 375.809 264.669 378.732 264.592C380.136 264.556 381.301 264.526 382.194 264.504C383.012 264.486 383.465 264.49 383.467 264.519C383.469 264.548 383.018 264.6 382.203 264.668C381.387 264.736 380.205 264.816 378.743 264.891C375.82 265.044 371.775 265.17 367.305 265.139C362.837 265.115 358.795 264.931 355.874 264.744C354.414 264.647 353.232 264.557 352.418 264.476C351.604 264.397 351.154 264.34 351.156 264.311Z" fill="#E0E0E0"/>
<path d="M63.3365 172.775L57.5885 172.806L58.9683 428.325L64.7163 428.294L63.3365 172.775Z" fill="#E0E0E0"/>
<path d="M77.1027 172.701L71.3547 172.732L72.7345 428.251L78.4825 428.22L77.1027 172.701Z" fill="#E0E0E0"/>
<path d="M197.373 172.052L191.625 172.083L193.005 427.602L198.753 427.571L197.373 172.052Z" fill="#E0E0E0"/>
<path d="M211.128 171.995L205.38 172.025L206.734 427.544L212.482 427.514L211.128 171.995Z" fill="#E0E0E0"/>
<path d="M211.14 171.977L57.5887 172.806L57.6202 178.637L211.171 177.808L211.14 171.977Z" fill="#E0E0E0"/>
<path d="M211.423 224.437L57.8719 225.266L57.8813 227.007L211.432 226.178L211.423 224.437Z" fill="#E0E0E0"/>
<path d="M211.69 273.883L58.139 274.712L58.1484 276.454L211.699 275.625L211.69 273.883Z" fill="#E0E0E0"/>
<path d="M211.957 323.328L58.4061 324.157L58.4155 325.899L211.967 325.07L211.957 323.328Z" fill="#E0E0E0"/>
<path d="M212.224 372.774L58.6732 373.603L58.6826 375.344L212.234 374.515L212.224 372.774Z" fill="#E0E0E0"/>
<path d="M148.055 344.265L120.854 344.412L121.01 373.267L148.211 373.12L148.055 344.265Z" fill="#EBEBEB"/>
<path d="M175.128 344.119L147.926 344.266L148.082 373.121L175.284 372.974L175.128 344.119Z" fill="#F5F5F5"/>
<path d="M120.88 352.314C138.954 352.492 157.081 352.342 175.154 352.053C175.426 352.049 175.425 351.631 175.152 351.629C157.078 351.534 138.949 351.578 120.879 351.95C120.644 351.956 120.646 352.312 120.88 352.314Z" fill="#E0E0E0"/>
<path d="M140.191 235.645L120.268 235.753L120.382 256.887L140.305 256.779L140.191 235.645Z" fill="#EBEBEB"/>
<path d="M160.019 235.538L140.096 235.646L140.21 256.78L160.133 256.672L160.019 235.538Z" fill="#F5F5F5"/>
<path d="M120.286 241.591C133.526 241.7 146.798 241.623 160.037 241.408C160.309 241.404 160.308 240.986 160.035 240.985C146.795 240.912 133.522 240.977 120.284 241.228C120.051 241.232 120.052 241.589 120.286 241.591Z" fill="#E0E0E0"/>
<path d="M144.044 256.427L107.847 256.622L107.94 273.845L144.137 273.65L144.044 256.427Z" fill="#EBEBEB"/>
<path d="M180.068 256.232L143.871 256.428L143.964 273.651L180.161 273.455L180.068 256.232Z" fill="#F5F5F5"/>
<path d="M107.859 261.413C131.905 261.685 156.035 261.441 180.08 261.056C180.352 261.052 180.351 260.634 180.078 260.633C156.03 260.506 131.899 260.52 107.857 261.05C107.624 261.055 107.626 261.41 107.859 261.413Z" fill="#E0E0E0"/>
<path d="M117.922 189.58L108.83 189.63L109.021 225.082L118.113 225.032L117.922 189.58Z" fill="#EBEBEB"/>
<path d="M108.705 199.215L99.6131 199.264L99.7523 225.04L108.844 224.991L108.705 199.215Z" fill="#E0E0E0"/>
<path d="M132.198 196.146L118.071 196.222L118.226 224.952L132.353 224.876L132.198 196.146Z" fill="#E0E0E0"/>
<path d="M136.456 196.135L131.968 196.158L132.12 224.888L136.608 224.865L136.456 196.135Z" fill="#EBEBEB"/>
<path d="M140.994 202.739L136.506 202.763L136.625 224.854L141.113 224.83L140.994 202.739Z" fill="#E0E0E0"/>
<path d="M115.979 293.389L107.567 289.94L94.9559 320.693L103.368 324.142L115.979 293.389Z" fill="#E0E0E0"/>
<path d="M123.878 288.566L114.786 288.615L114.978 324.067L124.07 324.018L123.878 288.566Z" fill="#EBEBEB"/>
<path d="M142.7 295.107L128.573 295.183L128.728 323.913L142.855 323.837L142.7 295.107Z" fill="#E0E0E0"/>
<path d="M128.512 284.54L125.421 284.557L125.634 323.931L128.725 323.914L128.512 284.54Z" fill="#EBEBEB"/>
<path d="M125.454 290.692L123.909 290.7L124.089 323.939L125.634 323.931L125.454 290.692Z" fill="#F5F5F5"/>
<path d="M142.978 322.362L142.986 323.907L176.225 323.728L176.217 322.183L142.978 322.362Z" fill="#F5F5F5"/>
<path d="M179.03 312.984L142.798 313.18L142.848 322.371L179.08 322.175L179.03 312.984Z" fill="#EBEBEB"/>
<path d="M171.843 303.762L142.747 303.919L142.797 313.11L171.893 312.953L171.843 303.762Z" fill="#E0E0E0"/>
<path d="M249.929 42.995C251.216 36.886 250.444 29.932 250.507 23.706C250.57 17.477 251.371 10.542 250.26 4.401C250.113 3.588 248.766 3.589 248.618 4.401C247.496 10.552 248.162 17.457 248.097 23.706C248.033 29.914 247.126 36.894 248.401 42.995C248.559 43.751 249.77 43.75 249.929 42.995Z" fill="#E0E0E0"/>
<path d="M194.938 91.45H305.063C305.063 91.45 294.895 42.784 249.166 42.784C208.491 42.784 194.938 91.45 194.938 91.45Z" fill="#F5F5F5"/>
<path d="M478.439 428.367C478.439 428.511 377.098 428.627 252.116 428.627C127.091 428.627 25.772 428.51 25.772 428.367C25.772 428.224 127.091 428.107 252.116 428.107C377.098 428.106 478.439 428.223 478.439 428.367Z" fill="#263238"/>
<path d="M332.269 428.039H167.731C161.353 428.039 156.182 422.868 156.182 416.49V149.966C156.182 143.587 161.353 138.417 167.731 138.417H332.27C338.649 138.417 343.819 143.588 343.819 149.966V416.49C343.819 422.869 338.648 428.039 332.269 428.039Z" fill="#455A64"/>
<path d="M255.75 414.573C255.75 418.85 252.527 422.317 248.55 422.317C244.574 422.317 241.35 418.85 241.35 414.573C241.35 410.296 244.573 406.829 248.55 406.829C252.526 406.829 255.75 410.296 255.75 414.573Z" fill="#263238"/>
<path d="M277.042 149.958H222.959C222.288 149.958 221.744 149.414 221.744 148.743V147.974C221.744 147.303 222.288 146.759 222.959 146.759H277.042C277.713 146.759 278.257 147.303 278.257 147.974V148.743C278.257 149.413 277.713 149.958 277.042 149.958Z" fill="#263238"/>
<path d="M338.383 155.037H162.58V399.387H338.383V155.037Z" fill="#263238"/>
<path d="M292.743 374.171C292.743 374.171 292.963 374.142 293.39 374.112C293.82 374.105 294.449 374.009 295.27 373.865C296.077 373.665 297.083 373.405 298.172 372.855C299.265 372.33 300.468 371.567 301.583 370.447C302.7 369.339 303.752 367.887 304.439 366.094C305.142 364.31 305.451 362.208 305.253 359.973C305.042 357.759 304.226 355.413 302.657 353.423C301.119 351.422 298.837 349.791 296.132 349.042C295.459 348.842 294.758 348.736 294.048 348.638C293.333 348.597 292.611 348.559 291.862 348.574C290.374 348.577 288.854 348.579 287.302 348.582C284.199 348.587 280.97 348.592 277.628 348.597C270.942 348.605 263.799 348.613 256.283 348.621C241.248 348.627 224.721 348.634 207.373 348.641C205.249 348.663 203.14 349.195 201.307 350.219C199.493 351.263 197.903 352.712 196.826 354.483C195.726 356.234 195.06 358.244 194.953 360.282C194.812 362.329 195.098 364.369 195.86 366.229C196.632 368.08 197.858 369.71 199.35 370.99C200.854 372.262 202.654 373.136 204.527 373.583C206.397 374.067 208.353 373.888 210.283 373.924C212.208 373.926 214.111 373.927 215.99 373.929C231.022 373.95 244.56 373.969 255.936 373.985C267.294 374.02 276.49 374.048 282.867 374.068C286.032 374.089 288.497 374.106 290.189 374.117C291.013 374.128 291.646 374.137 292.093 374.143C292.524 374.153 292.743 374.171 292.743 374.171C292.743 374.171 292.523 374.189 292.094 374.198C291.647 374.204 291.014 374.213 290.19 374.224C288.497 374.235 286.035 374.252 282.868 374.273C276.492 374.293 267.295 374.321 255.937 374.356C244.561 374.372 231.023 374.391 215.991 374.412C214.111 374.414 212.209 374.415 210.284 374.417C209.321 374.418 208.354 374.418 207.38 374.419C206.886 374.39 206.386 374.385 205.891 374.33C205.401 374.24 204.896 374.214 204.414 374.07C202.465 373.608 200.591 372.699 199.025 371.378C197.47 370.049 196.194 368.354 195.388 366.427C194.591 364.497 194.293 362.351 194.438 360.251C194.549 358.129 195.241 356.034 196.386 354.209C197.508 352.364 199.161 350.853 201.052 349.766C202.961 348.698 205.16 348.143 207.371 348.121C224.719 348.128 241.246 348.135 256.281 348.141C263.797 348.149 270.94 348.158 277.626 348.165C280.968 348.17 284.197 348.175 287.3 348.18C288.852 348.183 290.372 348.185 291.86 348.188C292.6 348.175 293.348 348.216 294.085 348.263C294.817 348.366 295.537 348.479 296.23 348.687C299.013 349.47 301.349 351.158 302.917 353.22C304.518 355.27 305.34 357.681 305.541 359.947C305.729 362.217 305.398 364.374 304.668 366.185C303.953 368.008 302.869 369.476 301.724 370.591C300.58 371.718 299.35 372.478 298.237 372.995C297.128 373.538 296.107 373.784 295.29 373.969C294.458 374.098 293.824 374.176 293.392 374.166C292.963 374.178 292.743 374.171 292.743 374.171Z" fill="white"/>
<path d="M227.934 359.583L227.313 360.357C226.853 359.862 226.196 359.555 225.557 359.555C224.296 359.555 223.306 360.528 223.306 361.77C223.306 363.012 224.296 363.994 225.557 363.994C226.187 363.994 226.835 363.706 227.313 363.247L227.943 363.949C227.303 364.579 226.394 364.984 225.504 364.984C223.658 364.984 222.227 363.588 222.227 361.779C222.227 359.988 223.676 358.61 225.54 358.61C226.43 358.611 227.322 358.98 227.934 359.583Z" fill="white"/>
<path d="M235.045 361.788C235.045 363.589 233.586 364.984 231.705 364.984C229.823 364.984 228.364 363.588 228.364 361.788C228.364 359.978 229.823 358.61 231.705 358.61C233.586 358.611 235.045 359.989 235.045 361.788ZM229.445 361.788C229.445 363.04 230.48 364.03 231.713 364.03C232.946 364.03 233.954 363.04 233.954 361.788C233.954 360.537 232.946 359.564 231.713 359.564C230.471 359.565 229.445 360.537 229.445 361.788Z" fill="white"/>
<path d="M240.597 364.94L237.239 360.42V364.94H236.176V358.638H237.22L240.597 363.166V358.638H241.641V364.94H240.597Z" fill="white"/>
<path d="M244.367 359.592V361.41H247.23V362.355H244.367V364.939H243.304V358.637H247.536L247.527 359.591H244.367V359.592Z" fill="white"/>
<path d="M248.479 364.94V358.638H249.542V364.94H248.479Z" fill="white"/>
<path d="M254.042 363.032C253.952 363.041 253.854 363.041 253.754 363.041H252.26V364.94H251.197V358.638H253.754C255.365 358.638 256.293 359.421 256.293 360.789C256.293 361.798 255.825 362.509 254.987 362.833L256.401 364.939H255.194L254.042 363.032ZM253.754 362.086C254.727 362.086 255.284 361.672 255.284 360.816C255.284 359.988 254.726 359.591 253.754 359.591H252.26V362.085H253.754V362.086Z" fill="white"/>
<path d="M263.384 364.94L263.375 360.232L261.386 364.283H260.693L258.703 360.232V364.94H257.704V358.638H258.965L261.044 362.824L263.115 358.638H264.366V364.94H263.384Z" fill="white"/>
<path d="M267.091 359.592V361.293H270.17V362.248H267.091V363.985H270.638V364.939H266.029V358.637H270.531V359.591H267.091V359.592Z" fill="white"/>
<path d="M274.517 358.638C276.408 358.638 277.776 359.961 277.776 361.788C277.776 363.607 276.399 364.939 274.49 364.939H271.933V358.637H274.517V358.638ZM272.996 363.986H274.545C275.769 363.986 276.705 363.077 276.705 361.798C276.705 360.51 275.742 359.592 274.499 359.592H272.996V363.986Z" fill="white"/>
<path d="M182.551 240.225L315.711 239.258L319.422 329.79L181.54 328.512L182.551 240.225Z" fill="#F97316"/>
<path d="M182.551 240.225L250.154 185.523L315.711 239.258" fill="#F97316"/>
<g opacity="0.3">
<path d="M182.551 240.225L250.154 185.523L315.711 239.258" fill="black"/>
</g>
<path d="M181.54 328.512C181.374 328.356 192.034 316.717 205.348 302.518C218.666 288.314 229.593 276.93 229.759 277.086C229.925 277.242 219.267 288.879 205.949 303.082C192.636 317.281 181.707 328.668 181.54 328.512Z" fill="#263238"/>
<path d="M319.422 329.79C319.252 329.941 308.87 318.537 296.237 304.321C283.599 290.1 273.496 278.453 273.666 278.302C273.836 278.151 284.216 289.553 296.853 303.773C309.487 317.99 319.593 329.639 319.422 329.79Z" fill="#263238"/>
<g opacity="0.5">
<path d="M315.711 239.258L248.845 292.674L182.551 240.225" fill="black"/>
</g>
<path d="M189.257 245.172L189.063 206.436L305.689 203.583L306.962 245.963L248.838 291.975L189.257 245.172Z" fill="#EBEBEB"/>
<path d="M250.466 278.059C249.364 278.059 248.254 277.996 247.142 277.87C239.441 276.998 232.541 273.179 227.714 267.116C222.886 261.055 220.708 253.475 221.58 245.775C223.381 229.878 237.78 218.407 253.676 220.213C261.376 221.085 268.276 224.904 273.104 230.966C277.932 237.028 280.11 244.607 279.238 252.308C278.366 260.008 274.547 266.908 268.484 271.736C263.297 275.867 257 278.059 250.466 278.059ZM250.389 221.027C236.342 221.027 224.193 231.606 222.574 245.888C221.732 253.323 223.835 260.641 228.497 266.495C233.159 272.347 239.82 276.035 247.255 276.877C254.688 277.724 262.008 275.616 267.862 270.955C273.714 266.293 277.402 259.632 278.244 252.196C279.087 244.761 276.984 237.443 272.322 231.59C267.661 225.737 260.999 222.05 253.563 221.207C252.498 221.086 251.437 221.027 250.389 221.027Z" fill="#F97316"/>
<path d="M230.689 253.071L235.537 247.129L246.88 255.323L265.312 233.598L270.869 238.485L247.164 265.806L230.689 253.071Z" fill="#F97316"/>
<path d="M375.928 292.339C376.024 293.085 377.047 293.435 377.695 293.054C378.343 292.673 378.59 291.824 378.481 291.08C378.372 290.336 377.976 289.67 377.589 289.025C378.756 289.684 380.456 288.97 380.803 287.677C381.151 286.383 380.037 284.914 378.697 284.899C379.634 284.706 380.594 284.434 381.316 283.807C382.038 283.179 382.453 282.107 382.06 281.235C381.667 280.363 380.306 280.027 379.71 280.775C380.204 280.452 380.713 280.116 381.039 279.624C381.365 279.132 381.463 278.438 381.112 277.963C380.706 277.414 379.875 277.371 379.237 277.617C378.599 277.863 378.072 278.327 377.473 278.655C376.046 279.435 374.193 279.365 372.829 278.479L369.096 281.565L375.928 292.339Z" fill="#263238"/>
<path d="M355.991 275.414C353.915 276.056 352.315 278.019 352.105 280.181C352.028 280.972 352.144 281.83 352.661 282.434C353.28 283.159 354.356 283.357 355.288 283.152C356.22 282.947 357.037 282.403 357.805 281.838C358.887 281.042 360.001 280.045 360.157 278.71C360.31 277.401 359.407 276.106 358.197 275.585C356.987 275.063 355.557 275.23 354.369 275.801" fill="#263238"/>
<path d="M359.234 293.882C358.847 295.189 358.386 296.499 357.58 297.598C356.774 298.697 355.569 299.569 354.212 299.693C352.855 299.817 351.386 299.043 350.966 297.747C350.74 298.523 350.098 299.183 349.308 299.354C348.518 299.525 347.62 299.152 347.249 298.435C346.877 297.718 347.13 296.718 347.835 296.323C347.033 296.775 346.035 297.231 345.241 296.764C344.897 296.561 344.659 296.208 344.537 295.828C344.133 294.572 344.915 293.254 345.778 292.256C346.641 291.258 347.669 290.273 347.885 288.971C348.058 287.926 347.667 286.883 347.411 285.856C347.125 284.71 347.005 283.5 347.266 282.348C347.527 281.196 348.207 280.106 349.236 279.527C350.265 278.948 351.653 278.966 352.564 279.717L352.734 281.42L359.234 293.882Z" fill="#263238"/>
<path d="M374.779 313.699C374.779 313.699 377.114 338.349 375.153 341.56C373.192 344.771 349.195 378.323 349.195 378.323L349.251 378.363C348.785 378.555 348.289 378.752 347.726 378.957C346.891 379.26 346.009 379.411 345.121 379.418C344.044 379.426 342.612 379.378 341.837 379.108C340.877 378.774 340.011 379.781 340.535 380.54C341.059 381.3 343.682 382.283 346.938 381.966C350.194 381.649 346.534 385.269 345.224 386.613C343.914 387.956 340.055 392.302 340.149 393.032C340.287 394.102 341.459 394.152 342.736 392.78C344.029 391.391 348.133 387.564 348.809 388.29C349.475 389.005 342.711 395.752 342.711 395.752C342.711 395.752 341.032 396.96 341.785 397.826C343.144 399.387 349.805 391.684 350.421 390.936C350.849 390.416 351.612 391.178 351.122 391.712C350.618 392.262 344.219 398.285 345.587 399.887C346.636 401.116 351.126 393.603 353.147 393.091C355.169 392.579 349.164 398.443 350.215 399.576C350.606 399.998 350.957 400.258 353.919 396.393C355.581 394.224 358.274 389.626 360.37 385.909C363.523 382.501 394.567 348.784 394.805 342.489C395.056 335.856 396.244 313.422 396.244 313.422L374.779 313.699Z" fill="#EB996E"/>
<path d="M337.745 423.418L337.461 414.267L354.599 413.626L355.156 427.009L354.096 427.117C349.377 427.556 330.07 429.018 326.873 428.178C323.307 427.242 337.745 423.418 337.745 423.418Z" fill="#F97316"/>
<g opacity="0.4">
<path d="M330.7 425.54C330.7 425.54 325.652 427.203 326.32 428.02C326.988 428.837 346.554 428.093 355.156 427.01L355.114 426.628L332.299 427.69C332.299 427.69 331.699 425.545 330.7 425.54Z" fill="white"/>
</g>
<path d="M355.383 426.608C355.383 426.615 355.282 426.63 355.09 426.651C354.836 426.676 354.559 426.703 354.246 426.734C353.401 426.803 352.362 426.887 351.136 426.986C348.509 427.181 344.876 427.401 340.859 427.557C336.841 427.712 333.201 427.773 330.567 427.783C329.337 427.779 328.295 427.775 327.447 427.772C327.132 427.765 326.854 427.76 326.599 427.754C326.405 427.748 326.303 427.741 326.303 427.734C326.303 427.727 326.405 427.719 326.598 427.712C326.853 427.705 327.131 427.699 327.446 427.691C328.293 427.676 329.335 427.658 330.564 427.636C333.197 427.589 336.834 427.505 340.85 427.35C344.864 427.194 348.497 426.997 351.125 426.84C352.352 426.767 353.392 426.704 354.238 426.654C354.552 426.637 354.831 426.623 355.085 426.61C355.28 426.601 355.382 426.6 355.383 426.608Z" fill="#263238"/>
<path d="M332.314 427.956C332.251 427.966 332.174 427.224 331.676 426.491C331.19 425.749 330.535 425.393 330.569 425.339C330.579 425.287 331.326 425.582 331.849 426.376C332.38 427.164 332.366 427.966 332.314 427.956Z" fill="#263238"/>
<path d="M337.273 425.198C337.226 425.231 336.973 424.945 336.708 424.561C336.443 424.177 336.267 423.839 336.314 423.806C336.361 423.773 336.614 424.059 336.879 424.443C337.143 424.828 337.32 425.166 337.273 425.198Z" fill="#263238"/>
<path d="M338.632 424.412C338.595 424.456 338.318 424.286 338.013 424.032C337.708 423.778 337.49 423.536 337.526 423.492C337.563 423.448 337.84 423.618 338.146 423.872C338.451 424.126 338.669 424.368 338.632 424.412Z" fill="#263238"/>
<path d="M339.448 422.761C339.451 422.818 339.052 422.885 338.558 422.909C338.064 422.933 337.661 422.906 337.658 422.849C337.655 422.792 338.054 422.726 338.548 422.701C339.042 422.677 339.445 422.704 339.448 422.761Z" fill="#263238"/>
<path d="M339.706 421.609C339.727 421.659 339.298 421.873 338.719 421.937C338.14 422.005 337.674 421.893 337.683 421.839C337.69 421.779 338.145 421.795 338.695 421.731C339.246 421.67 339.685 421.553 339.706 421.609Z" fill="#263238"/>
<path d="M336.635 423.726C336.637 423.749 336.216 423.817 335.533 423.761C335.192 423.733 334.788 423.668 334.351 423.547C334.134 423.479 333.907 423.43 333.669 423.296C333.557 423.227 333.432 423.13 333.383 422.964C333.331 422.801 333.412 422.612 333.533 422.518C334.565 421.933 335.641 422.485 336.053 423.014C336.279 423.284 336.387 423.55 336.44 423.735C336.491 423.922 336.492 424.029 336.48 424.031C336.442 424.047 336.389 423.6 335.943 423.111C335.723 422.871 335.395 422.642 334.979 422.535C334.586 422.435 334.031 422.424 333.67 422.674C333.5 422.81 333.576 423.013 333.775 423.122C333.961 423.232 334.198 423.294 334.404 423.363C334.826 423.491 335.218 423.569 335.549 423.615C336.213 423.707 336.633 423.692 336.635 423.726Z" fill="#263238"/>
<path d="M336.351 423.791C336.336 423.804 336.163 423.529 336.195 423.031C336.213 422.787 336.291 422.495 336.465 422.215C336.65 421.963 336.887 421.617 337.361 421.619C337.618 421.642 337.753 421.928 337.72 422.115C337.707 422.309 337.627 422.478 337.551 422.614C337.398 422.895 337.221 423.125 337.056 423.3C336.723 423.65 336.456 423.79 336.443 423.77C336.423 423.744 336.655 423.564 336.945 423.204C337.089 423.024 337.245 422.797 337.381 422.526C337.524 422.288 337.611 421.866 337.333 421.826C337.056 421.81 336.785 422.095 336.625 422.321C336.461 422.566 336.375 422.826 336.341 423.049C336.274 423.5 336.388 423.781 336.351 423.791Z" fill="#263238"/>
<path d="M354.855 421.932C354.853 421.971 354.362 421.904 353.591 422.025C352.827 422.14 351.772 422.495 350.872 423.268C349.973 424.043 349.465 425.034 349.238 425.773C349.004 426.518 348.998 427.012 348.959 427.009C348.946 427.009 348.936 426.886 348.945 426.663C348.954 426.441 348.995 426.119 349.097 425.732C349.293 424.963 349.798 423.919 350.736 423.111C351.674 422.304 352.781 421.959 353.571 421.879C353.969 421.836 354.293 421.843 354.514 421.867C354.736 421.891 354.856 421.919 354.855 421.932Z" fill="#263238"/>
<path d="M352.808 414.868C352.865 414.865 352.992 416.438 353.09 418.382C353.189 420.326 353.222 421.904 353.165 421.907C353.108 421.91 352.981 420.337 352.883 418.393C352.784 416.449 352.751 414.871 352.808 414.868Z" fill="#263238"/>
<path d="M346.717 425.519C346.726 425.572 345.617 425.798 344.225 425.862C342.833 425.93 341.707 425.811 341.711 425.756C341.714 425.696 342.836 425.722 344.215 425.654C345.594 425.591 346.708 425.459 346.717 425.519Z" fill="#263238"/>
<path d="M350.076 425.387C350.119 425.427 349.993 425.628 349.889 425.889C349.781 426.149 349.731 426.38 349.671 426.379C349.615 426.381 349.572 426.112 349.696 425.811C349.818 425.509 350.037 425.346 350.076 425.387Z" fill="#263238"/>
<path d="M351.282 423.763C351.324 423.802 351.22 423.984 351.05 424.171C350.88 424.357 350.707 424.477 350.665 424.438C350.623 424.399 350.726 424.217 350.897 424.03C351.067 423.844 351.239 423.724 351.282 423.763Z" fill="#263238"/>
<path d="M353.066 422.975C353.056 423.034 352.828 423.04 352.58 423.138C352.329 423.23 352.155 423.377 352.109 423.34C352.062 423.31 352.197 423.061 352.506 422.944C352.814 422.825 353.081 422.921 353.066 422.975Z" fill="#263238"/>
<path d="M354.342 422.586C354.365 422.639 354.27 422.73 354.13 422.791C353.99 422.852 353.858 422.858 353.835 422.805C353.812 422.752 353.907 422.661 354.047 422.6C354.187 422.54 354.319 422.534 354.342 422.586Z" fill="#263238"/>
<g opacity="0.3">
<path d="M354.814 421.474L337.684 421.839L337.632 419.775L354.909 420.384L354.814 421.474Z" fill="black"/>
</g>
<path d="M402.275 361.341L348.092 360.6C348.092 360.6 333.007 362.042 333.007 381.637L334.919 420.311H358.002L356.427 383.25C357.722 383.266 375.202 383.832 375.202 383.832L402.275 361.341Z" fill="#263238"/>
<path d="M334.919 420.311C334.901 420.311 334.876 420.081 334.846 419.642C334.818 419.149 334.782 418.512 334.738 417.721C334.638 415.991 334.5 413.593 334.331 410.658C333.976 404.695 333.299 396.468 332.851 387.355C332.69 382.804 332.344 378.441 332.886 374.472C333.033 373.484 333.198 372.531 333.481 371.612C333.769 370.701 334.153 369.857 334.584 369.076C335.476 367.529 336.582 366.262 337.727 365.277C338.873 364.288 340.056 363.585 341.127 363.052C342.219 362.559 343.191 362.214 344.005 362.006C344.405 361.91 344.766 361.823 345.09 361.745C345.395 361.698 345.663 361.657 345.897 361.621C346.334 361.557 346.563 361.533 346.566 361.55C346.569 361.567 346.344 361.627 345.916 361.724C345.686 361.774 345.423 361.831 345.124 361.896C344.807 361.987 344.453 362.088 344.061 362.201C343.264 362.436 342.315 362.805 341.255 363.313C340.216 363.861 339.072 364.571 337.969 365.553C336.868 366.532 335.809 367.778 334.96 369.287C334.55 370.048 334.187 370.868 333.918 371.745C333.656 372.618 333.496 373.571 333.36 374.536C332.852 378.423 333.207 382.781 333.369 387.33C333.816 396.43 334.435 404.664 334.696 410.637C334.839 413.623 334.906 416.041 334.938 417.713C334.942 418.506 334.946 419.145 334.948 419.638C334.947 420.079 334.937 420.31 334.919 420.311Z" fill="#455A64"/>
<path d="M438.326 423.435L429.191 424.041L427.947 406.937L441.302 405.909L441.447 406.965C442.052 411.666 444.193 430.909 443.466 434.134C442.656 437.729 438.326 423.435 438.326 423.435Z" fill="#F97316"/>
<g opacity="0.4">
<path d="M440.695 430.401C440.695 430.401 442.535 435.388 443.327 434.691C444.12 433.995 442.688 414.467 441.302 405.908L440.922 405.963L442.786 428.727C442.786 428.727 440.664 429.402 440.695 430.401Z" fill="white"/>
</g>
<path d="M440.892 405.696C440.899 405.695 440.917 405.796 440.945 405.988C440.979 406.24 441.016 406.517 441.058 406.829C441.156 407.671 441.277 408.706 441.42 409.928C441.707 412.547 442.055 416.17 442.353 420.178C442.65 424.188 442.839 427.823 442.941 430.456C442.98 431.685 443.013 432.727 443.04 433.574C443.044 433.889 443.049 434.167 443.052 434.422C443.053 434.616 443.049 434.718 443.042 434.718C443.035 434.718 443.024 434.617 443.01 434.424C442.994 434.17 442.978 433.891 442.959 433.577C442.914 432.731 442.859 431.69 442.794 430.463C442.654 427.833 442.442 424.202 442.146 420.194C441.848 416.187 441.523 412.564 441.274 409.943C441.157 408.719 441.058 407.682 440.978 406.838C440.95 406.524 440.926 406.247 440.904 405.993C440.89 405.799 440.885 405.697 440.892 405.696Z" fill="#263238"/>
<path d="M443.052 428.703C443.065 428.766 442.326 428.869 441.611 429.393C440.887 429.904 440.554 430.572 440.499 430.54C440.447 430.531 440.715 429.775 441.49 429.224C442.258 428.665 443.061 428.651 443.052 428.703Z" fill="#263238"/>
<path d="M440.122 423.844C440.156 423.89 439.88 424.153 439.505 424.431C439.13 424.709 438.799 424.898 438.764 424.851C438.73 424.805 439.006 424.542 439.38 424.264C439.756 423.987 440.088 423.798 440.122 423.844Z" fill="#263238"/>
<path d="M439.288 422.513C439.333 422.548 439.173 422.831 438.93 423.145C438.687 423.459 438.453 423.685 438.408 423.65C438.363 423.615 438.523 423.332 438.766 423.018C439.009 422.704 439.243 422.478 439.288 422.513Z" fill="#263238"/>
<path d="M437.61 421.756C437.667 421.751 437.747 422.147 437.789 422.64C437.831 423.133 437.818 423.537 437.761 423.541C437.704 423.546 437.624 423.15 437.582 422.657C437.54 422.165 437.552 421.761 437.61 421.756Z" fill="#263238"/>
<path d="M436.449 421.539C436.499 421.516 436.727 421.937 436.812 422.513C436.9 423.09 436.804 423.559 436.75 423.551C436.69 423.546 436.69 423.091 436.606 422.543C436.526 421.996 436.393 421.561 436.449 421.539Z" fill="#263238"/>
<path d="M438.672 424.534C438.695 424.531 438.778 424.949 438.746 425.634C438.73 425.975 438.679 426.382 438.574 426.823C438.513 427.043 438.473 427.271 438.347 427.513C438.282 427.627 438.189 427.755 438.025 427.81C437.864 427.867 437.672 427.793 437.574 427.676C436.953 426.665 437.466 425.57 437.981 425.14C438.243 424.905 438.505 424.787 438.688 424.728C438.873 424.67 438.98 424.666 438.983 424.678C439 424.716 438.556 424.784 438.082 425.247C437.85 425.476 437.632 425.812 437.541 426.231C437.454 426.627 437.464 427.182 437.726 427.534C437.868 427.699 438.068 427.616 438.17 427.414C438.273 427.224 438.327 426.985 438.388 426.777C438.501 426.351 438.565 425.957 438.6 425.623C438.668 424.956 438.639 424.536 438.672 424.534Z" fill="#263238"/>
<path d="M438.748 424.815C438.761 424.83 438.492 425.013 437.994 424.998C437.749 424.989 437.455 424.921 437.169 424.757C436.911 424.581 436.556 424.356 436.542 423.883C436.556 423.626 436.837 423.48 437.025 423.507C437.219 423.513 437.391 423.587 437.53 423.658C437.816 423.801 438.052 423.97 438.233 424.128C438.595 424.448 438.744 424.711 438.724 424.724C438.699 424.745 438.511 424.519 438.141 424.242C437.956 424.104 437.723 423.957 437.448 423.83C437.205 423.696 436.78 423.624 436.75 423.903C436.744 424.18 437.038 424.441 437.27 424.593C437.52 424.748 437.784 424.825 438.007 424.851C438.459 424.902 438.737 424.779 438.748 424.815Z" fill="#263238"/>
<path d="M436.238 406.388C436.277 406.389 436.227 406.881 436.375 407.648C436.516 408.407 436.908 409.449 437.713 410.322C438.52 411.193 439.528 411.666 440.274 411.866C441.026 412.073 441.521 412.062 441.519 412.101C441.519 412.114 441.397 412.129 441.174 412.127C440.951 412.125 440.628 412.096 440.238 412.008C439.463 411.84 438.402 411.371 437.561 410.462C436.722 409.553 436.338 408.458 436.23 407.672C436.173 407.276 436.169 406.951 436.185 406.73C436.201 406.508 436.226 406.387 436.238 406.388Z" fill="#263238"/>
<path d="M429.251 408.683C429.246 408.626 430.814 408.444 432.753 408.277C434.693 408.11 436.269 408.021 436.273 408.078C436.278 408.135 434.71 408.317 432.771 408.484C430.832 408.651 429.256 408.74 429.251 408.683Z" fill="#263238"/>
<path d="M440.11 414.394C440.163 414.383 440.428 415.484 440.541 416.872C440.658 418.261 440.578 419.39 440.524 419.388C440.464 419.387 440.45 418.265 440.334 416.889C440.222 415.514 440.05 414.405 440.11 414.394Z" fill="#263238"/>
<path d="M439.859 411.043C439.898 410.998 440.102 411.117 440.367 411.212C440.63 411.311 440.863 411.353 440.864 411.412C440.868 411.467 440.6 411.52 440.295 411.407C439.99 411.296 439.82 411.082 439.859 411.043Z" fill="#263238"/>
<path d="M438.194 409.895C438.231 409.851 438.417 409.949 438.61 410.112C438.802 410.276 438.928 410.444 438.891 410.488C438.854 410.532 438.668 410.434 438.475 410.271C438.283 410.107 438.157 409.938 438.194 409.895Z" fill="#263238"/>
<path d="M437.343 408.14C437.402 408.148 437.417 408.375 437.523 408.62C437.624 408.867 437.777 409.036 437.741 409.084C437.713 409.132 437.459 409.006 437.331 408.701C437.203 408.396 437.289 408.126 437.343 408.14Z" fill="#263238"/>
<path d="M436.91 406.878C436.962 406.853 437.057 406.945 437.122 407.083C437.187 407.221 437.198 407.353 437.147 407.377C437.095 407.402 437 407.31 436.935 407.172C436.869 407.034 436.858 406.902 436.91 406.878Z" fill="#263238"/>
<g opacity="0.3">
<path d="M435.782 406.445L436.75 423.552L434.689 423.676V406.388L435.782 406.445Z" fill="black"/>
</g>
<path d="M382.299 406.521L382.311 406.537C382.311 406.537 428.475 381.329 433.706 373.125C439.1 364.666 435.252 356.724 435.252 356.724L396.402 361.908L368.775 389.582C362.752 394.356 351.9 404.321 351.9 414.148C351.9 430.971 373.647 428.222 389.259 428.258C410.605 428.306 434.554 428.405 434.554 428.405L434.614 405.474L382.299 406.521Z" fill="#263238"/>
<path d="M371.335 411.318C371.384 411.431 373.93 410.433 377.021 409.087C380.112 407.741 382.578 406.558 382.528 406.445C382.479 406.332 379.933 407.33 376.842 408.676C373.751 410.022 371.285 411.204 371.335 411.318Z" fill="#455A64"/>
<path d="M374.965 405.696C374.961 405.82 376.769 405.979 379.002 406.052C381.236 406.125 383.05 406.083 383.054 405.96C383.058 405.836 381.251 405.677 379.016 405.605C376.784 405.531 374.969 405.572 374.965 405.696Z" fill="#455A64"/>
<path d="M393.352 365.779C393.364 365.792 393.214 365.957 392.917 366.26C392.577 366.597 392.141 367.029 391.6 367.565C390.394 368.726 388.728 370.33 386.69 372.293C382.468 376.288 376.714 381.732 370.357 387.747C367.171 390.768 364.065 393.58 361.374 396.253C358.695 398.935 356.49 401.564 355.011 404.012C353.493 406.441 352.757 408.667 352.387 410.216C352.304 410.599 352.229 410.945 352.162 411.256C352.121 411.547 352.085 411.803 352.053 412.029C351.99 412.447 351.949 412.667 351.931 412.666C351.913 412.665 351.919 412.442 351.949 412.018C351.967 411.789 351.987 411.529 352.009 411.233C352.051 410.925 352.121 410.572 352.189 410.174C352.501 408.594 353.196 406.31 354.695 403.823C356.155 401.316 358.357 398.633 361.033 395.916C363.723 393.207 366.813 390.391 370 387.368C376.398 381.396 382.188 375.991 386.437 372.025C388.522 370.113 390.226 368.55 391.46 367.418C392.028 366.912 392.487 366.503 392.844 366.185C393.166 365.905 393.34 365.766 393.352 365.779Z" fill="#455A64"/>
<path d="M379.486 315.686C375.356 317.915 370.204 316.077 368.417 311.738C367.446 309.379 366.663 307.454 366.663 307.454C366.663 307.454 360.7 309.568 357.664 304.105C355.957 301.035 353.551 295.79 351.77 291.784C350.264 288.396 350.628 284.471 352.734 281.42C357.624 275.247 361.501 276.282 369.274 277.545L370.428 277.733L382.939 305.479C384.644 309.259 383.137 313.716 379.486 315.686Z" fill="#FFBE9D"/>
<path d="M355.583 294.487C355.75 294.014 355.502 293.496 355.029 293.329C354.556 293.162 354.038 293.41 353.871 293.883C353.704 294.356 353.952 294.874 354.425 295.041C354.898 295.208 355.417 294.96 355.583 294.487Z" fill="#263238"/>
<path d="M353.121 293.573C353.259 293.622 353.574 292.915 354.33 292.502C355.08 292.078 355.847 292.184 355.878 292.041C355.896 291.976 355.717 291.85 355.379 291.797C355.046 291.743 354.547 291.786 354.078 292.047C353.609 292.307 353.309 292.708 353.179 293.02C353.044 293.335 353.056 293.553 353.121 293.573Z" fill="#263238"/>
<path d="M362.156 290.028C361.905 290.462 362.053 291.017 362.487 291.268C362.921 291.519 363.476 291.371 363.727 290.937C363.978 290.503 363.83 289.948 363.396 289.697C362.963 289.446 362.408 289.595 362.156 290.028Z" fill="#263238"/>
<path d="M361.4 289.823C361.538 289.872 361.853 289.165 362.609 288.752C363.359 288.328 364.126 288.434 364.157 288.291C364.175 288.226 363.996 288.1 363.658 288.047C363.325 287.993 362.826 288.036 362.357 288.297C361.888 288.557 361.588 288.958 361.458 289.269C361.324 289.585 361.336 289.803 361.4 289.823Z" fill="#263238"/>
<path d="M362.045 297.845C362.018 297.783 361.498 297.941 360.68 298.247C360.47 298.332 360.291 298.371 360.219 298.273C360.119 298.172 360.081 297.919 360.055 297.629C359.98 297.023 359.903 296.409 359.823 295.766C359.467 293.126 359.07 291.002 358.936 291.02C358.802 291.038 358.982 293.192 359.338 295.832C359.431 296.473 359.52 297.085 359.608 297.689C359.659 297.957 359.666 298.299 359.944 298.571C360.087 298.705 360.307 298.739 360.456 298.703C360.609 298.672 360.721 298.612 360.818 298.565C361.6 298.178 362.071 297.908 362.045 297.845Z" fill="#263238"/>
<path d="M366.612 307.38C366.612 307.38 370.241 305.786 372.682 301.472C372.682 301.472 373.124 306.345 367.368 308.812L366.612 307.38Z" fill="#EB996E"/>
<path d="M372.927 283.888C373.02 283.794 377.326 281.236 378.608 285.943C379.716 290.012 375.116 290.712 375.06 290.584C375.003 290.456 372.927 283.888 372.927 283.888Z" fill="#FFBE9D"/>
<path d="M375.888 288.194C375.901 288.175 375.973 288.216 376.107 288.227C376.237 288.237 376.442 288.201 376.617 288.051C376.972 287.749 377.077 286.969 376.837 286.262C376.717 285.904 376.518 285.595 376.29 285.362C376.066 285.121 375.809 284.991 375.589 285.03C375.366 285.058 375.265 285.236 375.258 285.363C375.246 285.491 375.299 285.559 375.281 285.573C375.274 285.587 375.174 285.539 375.146 285.367C375.134 285.284 375.145 285.175 375.209 285.067C375.274 284.957 375.397 284.868 375.547 284.83C375.854 284.74 376.226 284.916 376.477 285.172C376.745 285.423 376.976 285.767 377.111 286.169C377.375 286.961 377.245 287.842 376.743 288.212C376.496 288.384 376.237 288.386 376.086 288.338C375.93 288.285 375.877 288.206 375.888 288.194Z" fill="#EB996E"/>
<path d="M370.93 315.013C370.93 315.013 381.682 296.974 398.303 312.156C409.148 322.062 426.847 342.478 433.17 350.479C434.588 352.273 436.805 354.996 435.252 356.675C430.513 361.803 417.594 373.28 393.679 364.717L371.017 333.127C367.14 327.722 367.105 320.456 370.93 315.013Z" fill="#F97316"/>
<path d="M384.715 306.427L381.682 301.471L366.201 313.789L369.093 318.441L384.715 306.427Z" fill="#F97316"/>
<g opacity="0.3">
<path d="M384.051 307.066C384.051 307.066 371.863 317.607 371.686 317.433C371.509 317.259 366.818 313.87 366.818 313.87L371.114 316.278L384.051 307.066Z" fill="black"/>
</g>
<path d="M384.84 306.369C384.823 306.343 384.547 306.495 384.063 306.793C383.58 307.092 382.893 307.543 382.057 308.118C380.383 309.266 378.131 310.936 375.649 312.776C373.96 314.027 372.368 315.176 371.007 316.118L371.206 316.109C369.76 315.326 368.551 314.684 367.699 314.247C366.847 313.81 366.352 313.578 366.333 313.614C366.314 313.65 366.774 313.95 367.594 314.445C368.414 314.94 369.596 315.63 371.022 316.447L371.121 316.504L371.221 316.438C372.61 315.525 374.224 314.39 375.915 313.137C378.339 311.313 380.531 309.663 382.242 308.375C382.989 307.816 383.628 307.336 384.162 306.937C384.615 306.596 384.857 306.395 384.84 306.369Z" fill="#263238"/>
<path d="M318.747 353.692L315.806 352.495C315.806 352.495 313.911 352.058 310.822 350.583C310.02 350.2 309.294 349.677 308.667 349.048C307.907 348.285 306.937 347.231 306.586 346.489C306.151 345.571 304.826 345.659 304.652 346.565C304.478 347.471 305.614 350.031 308.123 352.131C310.631 354.231 305.484 354.158 303.607 354.165C301.731 354.172 295.926 354.466 295.471 355.045C294.804 355.893 295.59 356.765 297.464 356.714C299.361 356.663 304.968 356.907 304.924 357.898C304.881 358.874 295.328 358.78 295.328 358.78C295.328 358.78 293.289 358.429 293.2 359.573C293.039 361.636 303.202 360.988 304.168 360.903C304.839 360.844 304.83 361.922 304.106 361.947C303.361 361.973 294.579 361.631 294.396 363.73C294.255 365.34 302.76 363.275 304.542 364.358C306.324 365.441 297.933 365.268 297.861 366.812C297.834 367.387 297.894 367.819 302.727 367.223C307.677 366.612 320.818 362.774 320.818 362.774L318.602 353.569" fill="#FFBE9D"/>
<path d="M376.193 321.281C376.193 321.281 360.383 343.081 356.718 343.933C353.053 344.785 312.303 351.187 312.303 351.187L314.341 364.488C314.341 364.488 364.925 363.073 369.832 358.603C374.738 354.133 389.532 331.402 389.532 331.402L376.193 321.281Z" fill="#FFBE9D"/>
<path d="M365.063 358.219C365.046 358.238 365.171 358.399 365.483 358.585C365.794 358.762 366.313 358.955 366.978 358.903C367.633 358.863 368.441 358.487 368.927 357.73C369.425 357.009 369.598 355.88 369.06 354.957C368.802 354.503 368.385 354.135 367.895 353.983C367.412 353.834 366.893 353.871 366.474 354.092C365.592 354.557 365.461 355.66 365.879 356.237C366.328 356.848 367.02 356.811 367.345 356.675C367.702 356.526 367.785 356.304 367.765 356.298C367.737 356.27 367.609 356.433 367.292 356.509C367.001 356.585 366.43 356.532 366.146 356.066C365.859 355.624 366.009 354.765 366.662 354.46C366.978 354.302 367.388 354.279 367.761 354.4C368.131 354.52 368.46 354.807 368.672 355.179C369.114 355.933 368.99 356.869 368.581 357.505C368.179 358.165 367.522 358.509 366.943 358.586C365.74 358.741 365.091 358.138 365.063 358.219Z" fill="#EB996E"/>
<path d="M394.241 327.918L379.227 353.67L361.934 339.346C361.934 339.346 373.91 319.733 379.575 313.649L394.241 327.918Z" fill="#F97316"/>
<path d="M351.217 377.079C351.24 376.95 353.214 377.657 354.719 379.644C356.246 381.615 356.414 383.705 356.283 383.694C356.127 383.734 355.744 381.809 354.306 379.961C352.896 378.091 351.137 377.219 351.217 377.079Z" fill="#455A64"/>
<path d="M369.129 286.229C369.308 286.652 369.762 286.896 370.21 286.995C370.658 287.094 371.124 287.083 371.575 287.168C372.285 287.303 372.945 287.687 373.413 288.237C373.617 288.477 373.789 288.75 374.041 288.939C374.293 289.127 374.664 289.209 374.919 289.025C375.322 288.734 375.138 288.105 374.915 287.661C373.982 285.8 373.049 283.938 372.116 282.077L366.817 283.228L369.095 285.881" fill="#263238"/>
<path d="M351.816 279.9C352.43 279.165 353.342 278.569 354.059 279.203C354.776 279.837 355.085 280.807 355.304 281.738C355.523 282.67 355.696 283.644 356.235 284.436C356.913 285.433 358.162 286.01 359.36 285.881C360.559 285.752 361.656 284.923 362.107 283.805C362.828 284.889 363.569 285.995 364.611 286.776C365.652 287.558 367.068 287.967 368.28 287.49C369.491 287.013 370.271 285.46 369.644 284.319C370.341 284.846 371.175 285.246 372.049 285.242C372.923 285.238 373.829 284.758 374.153 283.945C374.476 283.133 374.03 282.047 373.178 281.851C374.152 282.49 375.531 282.497 376.451 281.782C377.371 281.068 377.692 279.647 377.085 278.653C376.478 277.659 374.974 277.319 374.05 278.028C374.704 277.63 375.39 277.2 375.746 276.522C376.103 275.844 375.969 274.846 375.274 274.524C374.439 274.137 373.548 274.908 372.643 275.075C371.166 275.346 369.957 274.016 368.761 273.108C366.601 271.466 363.676 271.024 361.018 271.564C358.359 272.104 355.949 273.547 353.909 275.335C352.572 276.505 351.276 278.208 351.816 279.9Z" fill="#263238"/>
<path d="M354.954 290.679C354.964 291.114 354.537 291.479 354.044 291.683C353.545 291.874 352.985 291.903 352.693 291.58C352.402 291.267 352.686 290.543 353.466 290.232C354.246 289.921 354.95 290.252 354.954 290.679Z" fill="#263238"/>
<path d="M362.876 286.883C362.792 287.313 362.259 287.581 361.729 287.835C361.186 288.06 360.63 288.278 360.254 288.053C360.08 287.932 360.018 287.663 360.149 287.329C360.275 286.998 360.611 286.623 361.092 286.409C361.573 286.194 362.076 286.195 362.407 286.322C362.743 286.447 362.902 286.673 362.876 286.883Z" fill="#263238"/>
<path d="M365.173 296.098C365.303 296.045 365.638 297.061 365.135 298.197C364.642 299.338 363.668 299.781 363.619 299.65C363.535 299.524 364.244 298.965 364.658 297.989C365.095 297.022 365.024 296.122 365.173 296.098Z" fill="#263238"/>
<path d="M376.709 280.119C376.716 280.133 376.641 280.185 376.481 280.26C376.319 280.325 376.065 280.407 375.722 280.419C375.077 280.444 373.913 280.177 373.3 278.984L373.574 279.04C372.825 279.754 371.649 280.32 370.275 280.353C368.925 280.396 367.337 279.918 366.239 278.679L366.683 278.503C366.724 279.19 366.3 279.847 365.741 280.204C365.182 280.573 364.494 280.757 363.799 280.671C362.628 280.495 361.764 279.734 361.078 279.008C360.386 278.263 359.835 277.483 359.196 276.868C358.57 276.245 357.854 275.788 357.104 275.658C356.355 275.52 355.619 275.673 355.005 275.916C353.765 276.422 352.979 277.259 352.439 277.788C351.904 278.339 351.614 278.655 351.584 278.629C351.559 278.608 351.794 278.251 352.289 277.652C352.792 277.076 353.545 276.171 354.863 275.576C355.513 275.294 356.315 275.096 357.176 275.232C358.042 275.361 358.859 275.873 359.529 276.522C360.216 277.166 360.785 277.954 361.45 278.658C362.105 279.353 362.914 280.017 363.863 280.154C364.964 280.305 366.233 279.525 366.177 278.524L366.136 277.789L366.622 278.348C367.582 279.453 369.019 279.922 370.266 279.907C371.533 279.903 372.623 279.415 373.339 278.787L373.516 278.632L373.613 278.843C374.087 279.879 375.123 280.206 375.723 280.232C376.362 280.259 376.693 280.073 376.709 280.119Z" fill="#455A64"/>
<path d="M396.752 323.941C396.702 323.942 396.707 323.344 396.52 322.295C396.328 321.254 395.907 319.743 394.886 318.143C393.883 316.558 392.25 314.864 389.943 313.906C387.663 312.946 384.766 312.712 382.043 313.631C380.687 314.088 379.475 314.826 378.405 315.669C377.334 316.508 376.412 317.455 375.606 318.418C373.994 320.35 372.827 322.324 371.809 323.947C370.805 325.583 369.986 326.907 369.38 327.797C369.084 328.246 368.835 328.582 368.669 328.812C368.501 329.04 368.405 329.154 368.39 329.144C368.358 329.122 368.661 328.611 369.209 327.689C369.793 326.684 370.563 325.359 371.493 323.758C372.473 322.108 373.611 320.103 375.236 318.112C376.861 316.155 379.004 314.13 381.876 313.137C384.731 312.174 387.756 312.435 390.13 313.464C392.537 314.493 394.204 316.289 395.198 317.949C396.21 319.626 396.585 321.194 396.719 322.264C396.783 322.802 396.803 323.223 396.789 323.508C396.783 323.793 396.77 323.941 396.752 323.941Z" fill="#263238"/>
<path d="M392.339 333.358C392.293 333.367 392.416 332.947 391.936 332.544C391.708 332.342 391.368 332.209 390.926 332.164C390.495 332.102 389.942 332.131 389.365 331.882C388.184 331.396 387.416 330.022 387.02 328.552C386.814 327.813 386.652 327.037 386.375 326.288C386.104 325.541 385.689 324.822 385.024 324.351C384.364 323.874 383.551 323.66 382.762 323.565C381.967 323.47 381.184 323.502 380.424 323.523C378.918 323.58 377.457 323.519 376.384 322.925C375.323 322.35 374.759 321.464 374.615 320.815C374.53 320.49 374.55 320.226 374.566 320.056C374.599 319.885 374.626 319.799 374.643 319.802C374.696 319.805 374.608 320.171 374.809 320.758C374.998 321.336 375.56 322.111 376.553 322.597C377.538 323.094 378.907 323.128 380.406 323.043C381.881 322.985 383.737 322.841 385.328 323.929C386.106 324.48 386.574 325.318 386.853 326.113C387.141 326.915 387.293 327.704 387.482 328.428C387.838 329.85 388.523 331.099 389.513 331.546C389.989 331.78 390.51 331.786 390.97 331.877C391.431 331.949 391.843 332.143 392.073 332.397C392.315 332.643 392.408 332.918 392.404 333.098C392.404 333.279 392.351 333.362 392.339 333.358Z" fill="#FAFAFA"/>
<path d="M386.368 341.914C386.315 341.928 386.288 341.577 385.94 341.115C385.607 340.65 384.902 340.143 383.901 339.85C382.917 339.521 381.62 339.556 380.215 339.098C379.521 338.872 378.789 338.437 378.315 337.748C377.839 337.077 377.583 336.302 377.151 335.669C376.273 334.391 374.686 333.96 373.355 333.632C371.99 333.313 370.692 332.969 369.793 332.28C368.896 331.604 368.467 330.738 368.375 330.126C368.281 329.503 368.434 329.172 368.455 329.182C368.503 329.187 368.426 329.523 368.573 330.083C368.716 330.634 369.159 331.398 370.008 331.982C370.854 332.574 372.084 332.871 373.465 333.165C374.156 333.32 374.899 333.505 375.629 333.829C376.354 334.15 377.088 334.643 377.581 335.376C378.065 336.097 378.315 336.866 378.732 337.455C379.135 338.047 379.736 338.421 380.374 338.646C381.657 339.098 382.974 339.109 384.017 339.501C385.059 339.855 385.801 340.457 386.11 341.003C386.273 341.27 386.337 341.508 386.366 341.666C386.385 341.828 386.386 341.911 386.368 341.914Z" fill="#FAFAFA"/>
<path d="M413.971 328.362C413.987 328.364 413.984 328.508 413.937 328.779C413.882 329.047 413.765 329.443 413.503 329.9C412.996 330.825 411.833 331.906 410.136 332.686C409.296 333.083 408.346 333.431 407.368 333.864C406.394 334.298 405.383 334.835 404.563 335.684C402.858 337.362 402.026 339.961 400.832 342.506C400.23 343.781 399.519 345.021 398.511 345.961C398.259 346.194 398.011 346.426 397.722 346.605C397.448 346.802 397.17 346.989 396.868 347.126C396.276 347.419 395.659 347.613 395.055 347.752C392.624 348.267 390.414 348.138 388.683 348.687C386.934 349.162 385.814 350.244 385.333 351.112C384.834 351.993 384.881 352.601 384.818 352.588C384.804 352.588 384.784 352.444 384.81 352.17C384.834 351.897 384.917 351.489 385.154 351.017C385.599 350.074 386.755 348.878 388.575 348.335C390.367 347.722 392.625 347.809 394.945 347.285C395.522 347.145 396.1 346.956 396.647 346.68C396.926 346.552 397.18 346.377 397.432 346.192C397.698 346.027 397.927 345.809 398.159 345.591C399.091 344.715 399.772 343.533 400.362 342.281C401.539 339.789 402.392 337.122 404.225 335.343C405.114 334.444 406.198 333.892 407.195 333.468C408.201 333.043 409.151 332.718 409.983 332.35C411.649 331.634 412.794 330.643 413.33 329.793C413.88 328.943 413.915 328.346 413.971 328.362Z" fill="#FAFAFA"/>
<path d="M424.047 340.735C424.047 340.735 424.027 341.373 423.411 342.295C422.818 343.224 421.555 344.29 419.76 345.062C417.979 345.877 415.662 346.252 413.461 347.438C412.364 348.028 411.387 348.913 410.734 350.097C410.06 351.269 409.631 352.639 409.046 354.006C407.883 356.783 405.783 358.936 403.54 360.222C401.285 361.53 398.897 361.962 396.954 361.907C394.996 361.859 393.455 361.407 392.457 360.989C391.953 360.786 391.579 360.59 391.332 360.447C391.086 360.303 390.961 360.22 390.97 360.204C390.992 360.163 391.519 360.445 392.529 360.799C393.533 361.153 395.054 361.539 396.958 361.539C398.851 361.545 401.141 361.089 403.299 359.807C405.449 358.543 407.451 356.471 408.569 353.799C409.141 352.467 409.576 351.077 410.293 349.841C410.988 348.588 412.077 347.616 413.231 347.016C415.553 345.803 417.874 345.475 419.617 344.722C421.386 344.011 422.626 343.034 423.246 342.177C423.888 341.329 423.987 340.711 424.047 340.735Z" fill="#FAFAFA"/>
<path d="M433.121 350.511C433.175 350.617 431.34 351.078 429.096 352.951C427.995 353.89 426.818 355.193 425.926 356.885C425.471 357.723 425.147 358.677 424.728 359.669C424.312 360.644 423.733 361.706 422.722 362.381C421.722 363.052 420.565 363.269 419.509 363.391C418.442 363.51 417.427 363.545 416.484 363.702C414.588 364 412.942 364.594 411.635 365.228C409.013 366.52 407.725 367.864 407.658 367.777C407.638 367.757 407.936 367.407 408.562 366.863C409.187 366.321 410.154 365.597 411.469 364.899C412.783 364.208 414.459 363.561 416.407 363.228C417.382 363.053 418.414 363.008 419.45 362.884C420.48 362.76 421.55 362.543 422.43 361.95C423.313 361.363 423.848 360.414 424.26 359.465C424.672 358.511 425.016 357.527 425.503 356.658C426.453 354.913 427.7 353.594 428.862 352.665C430.037 351.743 431.12 351.19 431.889 350.883C432.276 350.732 432.579 350.626 432.791 350.573C433.003 350.516 433.115 350.493 433.121 350.511Z" fill="#FAFAFA"/>
<path d="M392.968 331.995C392.93 331.9 394.07 331.771 395.254 330.554C395.84 329.959 396.41 329.122 396.853 328.104C397.298 327.087 397.601 325.881 397.923 324.61C398.247 323.337 398.587 322.108 399.11 321.058C399.631 320.012 400.303 319.173 400.988 318.608C401.674 318.041 402.352 317.75 402.833 317.641C403.316 317.53 403.591 317.558 403.593 317.582C403.626 317.68 402.473 317.727 401.231 318.885C400.618 319.45 400.013 320.264 399.542 321.267C399.07 322.27 398.75 323.47 398.427 324.739C398.104 326.009 397.782 327.24 397.29 328.301C396.8 329.359 396.165 330.222 395.509 330.819C394.852 331.418 394.193 331.747 393.721 331.886C393.248 332.027 392.971 332.02 392.968 331.995Z" fill="#FAFAFA"/>
<path d="M390.106 314.036C389.974 314.014 390.3 312.526 391.536 311.186C392.761 309.834 394.214 309.379 394.248 309.508C394.315 309.649 393.054 310.281 391.92 311.538C390.77 312.778 390.252 314.09 390.106 314.036Z" fill="#FAFAFA"/>
<path d="M383.089 303.756C383.146 303.8 382.543 304.695 381.521 306.107C380.995 306.804 380.437 307.668 379.639 308.551C379.233 308.981 378.74 309.408 378.118 309.68C377.492 309.957 376.786 310.011 376.115 310.008C375.44 310.006 374.801 309.965 374.212 310.043C373.626 310.12 373.077 310.317 372.601 310.586C371.638 311.122 371.004 311.944 370.676 312.709C370.02 314.283 370.372 315.411 370.267 315.407C370.238 315.415 370.125 315.16 370.065 314.663C370.009 314.171 370.018 313.423 370.335 312.571C370.643 311.725 371.311 310.785 372.361 310.171C372.88 309.862 373.486 309.631 374.143 309.538C374.799 309.445 375.463 309.486 376.116 309.487C376.768 309.49 377.386 309.44 377.917 309.211C378.451 308.985 378.903 308.615 379.292 308.219C380.059 307.41 380.669 306.548 381.228 305.884C382.325 304.529 383.032 303.713 383.089 303.756Z" fill="#FAFAFA"/>
<g opacity="0.2">
<path d="M396.369 327.173L388.779 357.923L382.141 348.671L396.369 327.173Z" fill="black"/>
</g>
<path d="M429.294 428.398C429.15 428.398 429.034 423.288 429.034 416.985C429.034 410.68 429.15 405.571 429.294 405.571C429.438 405.571 429.554 410.68 429.554 416.985C429.554 423.288 429.437 428.398 429.294 428.398Z" fill="#455A64"/>
<path d="M91.193 371.727C94.204 371.859 97.017 373.518 98.985 375.802C100.952 378.086 102.146 380.946 102.9 383.864C104.359 389.51 103.376 396.15 101.721 401.742C95.641 399.51 91.936 392.974 90.265 389.54C87.623 384.113 86.145 372.7 91.193 371.727Z" fill="#F97316"/>
<path d="M110.438 408.646C108.537 405.867 108.525 402.024 110.072 399.033C111.619 396.042 114.56 393.901 117.787 392.94C119.279 392.496 121.008 392.319 122.295 393.194C123.498 394.013 124.008 395.603 123.839 397.049C123.671 398.495 122.926 399.812 122.051 400.976C119.051 404.966 115.415 408.276 110.438 408.646Z" fill="#F97316"/>
<path d="M110.947 427.476C110.917 427.48 110.829 427.062 110.684 426.303C110.528 425.466 110.327 424.385 110.084 423.087C109.626 420.383 108.895 416.538 109.509 412.299C110.1 408.079 111.813 404.481 113.595 402.339C114.472 401.255 115.31 400.49 115.929 400.021C116.228 399.774 116.492 399.622 116.659 399.506C116.831 399.395 116.924 399.343 116.933 399.355C116.999 399.431 115.499 400.338 113.831 402.524C112.142 404.674 110.51 408.21 109.928 412.36C109.324 416.512 109.995 420.322 110.379 423.04C110.585 424.405 110.752 425.511 110.846 426.279C110.942 427.045 110.975 427.472 110.947 427.476Z" fill="#263238"/>
<path d="M93.086 380.319C93.1 380.313 93.182 380.473 93.328 380.783C93.487 381.135 93.692 381.587 93.945 382.146C94.474 383.333 95.217 385.06 96.117 387.201C97.918 391.483 100.323 397.434 102.83 404.065C105.336 410.699 107.469 416.753 108.951 421.156C109.693 423.357 110.277 425.144 110.666 426.383C110.846 426.97 110.991 427.444 111.105 427.813C111.201 428.141 111.245 428.316 111.231 428.321C111.217 428.325 111.146 428.16 111.024 427.84C110.891 427.477 110.721 427.012 110.51 426.435C110.058 425.162 109.433 423.404 108.669 421.253C107.116 416.877 104.94 410.843 102.435 404.213C99.929 397.587 97.57 391.623 95.841 387.313C94.992 385.195 94.297 383.463 93.794 382.208C93.571 381.636 93.391 381.174 93.25 380.814C93.13 380.496 93.073 380.324 93.086 380.319Z" fill="#263238"/>
<path d="M103.815 414.959C100.271 408.808 93.592 404.579 86.516 404.004C84.714 403.858 82.543 404.143 81.725 405.754C80.906 407.369 81.966 409.297 83.183 410.638C88.246 416.217 96.874 418.221 103.877 415.444" fill="#F97316"/>
<path d="M89.22 408.854C89.222 408.825 89.623 408.845 90.348 408.905C90.711 408.933 91.156 408.969 91.664 409.069C92.171 409.168 92.762 409.228 93.389 409.409C94.021 409.57 94.718 409.731 95.439 409.997C96.175 410.221 96.929 410.543 97.722 410.887C99.287 411.614 100.947 412.562 102.524 413.789C104.089 415.031 105.409 416.415 106.48 417.771C106.995 418.466 107.486 419.124 107.868 419.792C108.291 420.434 108.603 421.079 108.897 421.661C109.212 422.233 109.396 422.798 109.601 423.273C109.808 423.748 109.936 424.175 110.038 424.525C110.248 425.222 110.35 425.61 110.322 425.618C110.232 425.649 109.812 424.088 108.63 421.796C108.323 421.23 108 420.603 107.571 419.978C107.182 419.328 106.688 418.688 106.174 418.011C105.104 416.692 103.801 415.341 102.264 414.121C100.715 412.916 99.092 411.975 97.56 411.239C96.784 410.891 96.046 410.561 95.326 410.326C94.62 410.049 93.937 409.874 93.317 409.696C90.821 409.046 89.209 408.946 89.22 408.854Z" fill="#263238"/>
</svg>
